<svg xmlns="http://www.w3.org/2000/svg" viewBox="0 0 512 512"><path fill="#63d9f8" d="M142.833.859c-.183.473-2.435 1.782-5.004 2.909-26.122 11.461-38.556 46.668-34.994 99.083 1.238 18.213 4.031 38.899 6.751 49.995.856 3.49 1.411 6.483 1.235 6.651-.177.167-5.946 2.403-12.821 4.968-35.403 13.207-60.847 29.894-77.307 50.703-2.031 2.568-3.693 4.973-3.693 5.346 0 .372-.908 1.953-2.019 3.512-3.264 4.584-6.977 15.623-8.125 24.159C2.34 281.74 26.818 314.37 73.5 337.022c10.75 5.217 16.045 7.401 32.841 13.548 4.389 1.606 4.788 2.012 4.278 4.351-10.342 47.384-11.099 90.922-2.05 117.879 5.454 16.248 15.719 29.098 27.701 34.676 3.723 1.733 6.46 3.46 6.083 3.838-.378.377 5.721.686 13.552.686 11.323 0 14.545-.307 15.738-1.5.825-.825 2.26-1.5 3.189-1.5 1.73 0 13.518-4.959 20.668-8.695 12.216-6.384 32.214-22.687 49.733-40.545l10.733-10.94 14.282 14.34c24.321 24.419 50.305 42.086 68.002 46.234 1.512.354 2.75 1.086 2.75 1.625 0 1.164 27.663 1.373 28.167.213.183-.423 3.265-2.2 6.85-3.948 15.578-7.6 25.763-23.414 31.099-48.284 4.665-21.744 2.926-62.277-4.148-96.657-1.093-5.311-1.804-9.841-1.579-10.065.224-.224 3.491-1.466 7.259-2.759 65.755-22.56 101.928-60.707 96.344-101.601-4.601-33.695-36.935-63.355-90.992-83.466-6.875-2.558-12.635-4.778-12.799-4.934-.165-.155.357-3.148 1.159-6.65 5.097-22.252 8.219-55.289 7.208-76.266-1.806-37.448-13.079-61.734-33.318-71.776C372.813 3.121 370 1.337 370 .863c0-1.546-28.709-1.064-29.306.492-.286.745-2.076 1.608-3.978 1.916-7.378 1.197-26.708 11.312-36.216 18.95-.55.441-2.8 2.175-5 3.851-8.33 6.349-16.378 13.635-27.7 25.079l-11.699 11.825L242.8 49.675c-25.208-25.21-49.091-41.637-67.895-46.701C172.757 2.396 171 1.49 171 .961c0-1.205-27.7-1.305-28.167-.102m4.914 24.344c-17.708 4.703-26.838 33.701-23.95 76.069 1.04 15.264 6.211 50.07 7.653 51.511.299.299 8.532-1.096 18.297-3.1 17.886-3.671 31.423-5.935 43.075-7.206 4.486-.49 6.518-1.17 7-2.344 1.415-3.451 22.302-34.167 31.59-46.455l9.691-12.822-3.699-4.178c-32.12-36.286-68.406-57.118-89.657-51.475m200.753-.606c-12.052 2.954-26.009 9.95-38.39 19.244-7.631 5.728-26.062 22.068-29.636 26.274-1.115 1.312-3.721 4.26-5.792 6.552l-3.764 4.167 12.04 16.192c6.623 8.906 16.151 22.617 21.176 30.469l9.134 14.277 6.116.663c7.62.825 29.591 4.223 35.616 5.507 12.394 2.642 19.76 4.33 22.228 5.094 3.406 1.055 3.236 1.377 5.65-10.669 5.359-26.732 7.414-65.452 4.317-81.367-3.424-17.6-10.116-29.368-19.392-34.1-3.923-2.002-15.094-3.335-19.303-2.303m-101.596 85.571c-4.622 6.143-9.079 12.185-9.904 13.427-.825 1.243-3.445 5.035-5.822 8.427-2.377 3.392-4.113 6.376-3.857 6.632.557.557 56.9.458 57.459-.1.928-.928-27.27-39.554-28.876-39.554-.328 0-4.378 5.026-9 11.168M225 163.972c-6.325.421-12.245.824-13.155.896-1.939.155-4.273 3.963-17.544 28.632-10.899 20.258-29.301 59.825-29.301 63 0 .84.418 2.309.93 3.264.511.955 3.494 7.361 6.627 14.236 10.632 23.325 23.647 48.909 33.153 65.174l4.485 7.674 7.653.826c9.679 1.045 68.421 1.019 77.358-.034 7.652-.901 5.673 1.525 20.098-24.64 4.685-8.496 17.709-34.92 23.268-47.206 3.06-6.762 6.208-13.712 6.996-15.445 1.973-4.342 2.021-4.112-3.453-16.655-8.702-19.938-21.051-44.462-33.897-67.318l-6.253-11.125-5.232-.636c-8.41-1.022-59.183-1.477-71.733-.643m105 4.703c0 .393 6.075 12.787 13.5 27.544 7.425 14.756 13.5 27.494 13.5 28.305 0 3.922 2.819.771 4.719-5.274a8941.356 8941.356 0 0 1 7.201-22.722c2.794-8.784 5.08-16.751 5.08-17.703 0-2.239-8.365-4.476-33-8.824-3.575-.631-7.512-1.348-8.75-1.593-1.238-.245-2.25-.125-2.25.267m-167 2.785c-6.325 1.25-14.698 3.067-18.606 4.036l-7.106 1.762 1.423 5.621c4.833 19.104 16.283 48.589 16.291 41.954.001-1.593 16.778-35.885 23.279-47.583l4.584-8.25-4.182.093c-2.301.051-9.358 1.116-15.683 2.367m-59 16.134c-46.105 17.984-71.953 39.541-76.179 63.533-3.108 17.644 10.274 37.439 36.77 54.388 12.641 8.087 47.142 23.096 51.197 22.273.881-.179 2.835-5.194 5.178-13.288 4.119-14.228 13.093-40.667 15.953-47 4.831-10.698 4.813-11.178-.952-25.5-3.317-8.24-13.822-39.646-15.554-46.5-1.319-5.222-4.113-12.605-4.71-12.446-.112.03-5.378 2.073-11.703 4.54m290.416-1.901c-2.155 9.295-13.639 44.291-19.023 57.969-4.456 11.321-5.089 14.18-3.521 15.888 1.719 1.872 15.316 41.305 21.104 61.2 2.488 8.555 1.965 8.427 14.818 3.619 43.349-16.216 71.536-39.038 76.182-61.685 5.319-25.926-20.744-52.693-71.145-73.068-18.43-7.45-17.636-7.281-18.415-3.923m-149.967 21.252c-8.177 2.911-11.229 4.834-17.252 10.871-34.983 35.063-5.031 100.536 39.874 87.163 33.427-9.955 44.15-58.272 19.113-86.12-10.495-11.673-28.21-16.73-41.735-11.914m-92.35 81.305C147.28 300.985 138 330.446 138 333.01c0 1.853 3.058 2.975 15 5.506 16.944 3.59 29 5.306 29 4.126 0-.197-5.341-10.884-11.869-23.75s-12.716-25.528-13.75-28.138c-2.093-5.283-3.024-5.827-4.282-2.504M357 287.112c0 1.398-19.566 41.182-24.472 49.761l-3.645 6.373 6.809-.724c8.764-.932 32.712-5.589 36.79-7.154 2.548-.977-.393-12.971-9.166-37.368-1.878-5.225-3.604-10.062-3.834-10.75-.519-1.549-2.482-1.657-2.482-.138M129.144 369.75c-14.21 71.486-3.263 118.25 27.68 118.25 19.062 0 52.981-21.758 78.306-50.231l5.987-6.73-10.808-14.403c-5.945-7.922-15.534-21.608-21.309-30.414l-10.5-16.011-6-.674c-10.209-1.146-35.449-5.464-47.12-8.062-6.117-1.361-11.791-2.475-12.61-2.475-1.094 0-2.056 2.852-3.626 10.75M366 361.593c-10.66 2.49-35.572 6.754-46.5 7.958l-6 .661-9.396 14.48c-5.168 7.965-14.762 21.697-21.32 30.516l-11.924 16.036 2.813 3.128c46.797 52.033 91.278 67.971 106.548 38.176 10.462-20.413 11.378-61.264 2.346-104.548-.861-4.125-1.566-7.837-1.566-8.25-.002-1.229-3.905-.75-15.001 1.843m-138.656 11.659c-.381.617 4.798 8.95 6.679 10.748.288.275 1.381 1.85 2.43 3.5 3.667 5.772 18.712 25.5 19.446 25.5.684 0 14.028-17.285 19.925-25.812 7.459-10.782 9.194-13.503 8.837-13.86-.749-.749-56.855-.823-57.317-.076" fill-rule="evenodd"/></svg>